<svg xmlns="http://www.w3.org/2000/svg" width="664.3388847916053" height="150.52558609657288" viewBox="0 0 1033 234" version="1.1">
<path fill="#ffffff" opacity="1.00" d=" M 76.79 2.77 C 84.88 -0.16 93.57 1.39 101.96 0.99 C 111.15 0.35 120.00 3.77 128.06 7.82 C 144.15 16.32 156.96 29.77 168.19 43.85 C 168.86 44.43 169.24 45.74 170.32 45.58 C 183.40 28.44 198.27 10.90 219.06 3.16 C 227.54 -0.55 236.91 1.41 245.85 0.81 C 262.77 2.66 277.74 12.68 289.32 24.70 C 308.40 44.82 319.68 71.16 325.72 97.94 C 330.12 119.96 332.29 142.81 328.51 165.10 C 325.67 181.62 318.71 198.58 304.84 208.82 C 293.80 217.13 279.45 219.52 265.96 218.00 C 251.11 217.07 237.83 208.64 227.89 198.01 C 215.44 184.75 205.73 169.26 196.20 153.85 C 185.95 136.98 176.12 119.86 165.66 103.11 C 151.37 127.01 138.82 151.99 123.16 175.06 C 115.35 186.39 106.88 197.51 96.13 206.23 C 87.89 212.93 77.69 217.48 67.01 218.09 C 52.82 219.34 37.76 216.57 26.28 207.71 C 13.09 197.78 5.69 181.93 2.79 166.00 C -0.96 147.50 0.71 128.42 3.42 109.89 C 7.91 84.36 16.84 59.23 31.96 37.99 C 43.12 22.37 58.20 8.65 76.79 2.77 M 229.48 28.63 C 221.80 29.86 215.07 34.26 209.36 39.33 C 200.84 46.99 194.17 56.39 187.75 65.80 C 187.27 66.67 186.41 67.44 186.36 68.48 C 204.65 95.90 220.32 124.97 238.67 152.36 C 244.68 161.16 250.51 170.33 258.67 177.33 C 267.04 184.68 281.14 185.11 289.31 177.23 C 295.45 171.12 297.54 162.20 298.51 153.88 C 298.97 141.60 299.21 129.16 297.06 117.01 C 294.80 97.88 289.38 78.96 280.19 61.97 C 274.06 50.90 265.94 40.50 254.99 33.88 C 247.44 29.23 238.26 27.14 229.48 28.63 M 81.06 39.18 C 69.37 45.35 61.10 56.33 54.82 67.68 C 43.22 89.21 37.44 113.61 36.47 137.95 C 36.17 148.60 36.43 159.79 41.26 169.53 C 44.00 175.18 48.77 180.20 54.97 181.89 C 63.12 184.53 72.35 182.21 78.94 176.93 C 85.60 171.61 90.81 164.78 95.85 157.98 C 103.51 147.46 110.52 136.49 117.54 125.54 C 127.73 109.25 138.53 93.33 148.64 77.00 C 142.75 68.79 136.75 60.59 129.67 53.35 C 123.19 46.56 115.68 40.32 106.61 37.45 C 98.27 35.00 88.86 34.98 81.06 39.18 Z"/>
<path fill="#ffffff" opacity="1.00" d=" M 418.07 46.26 C 426.94 46.40 435.80 46.31 444.67 46.32 C 444.67 84.03 444.74 121.74 444.64 159.44 C 464.92 159.63 485.21 159.60 505.49 159.46 C 505.95 166.92 505.45 174.41 505.76 181.88 C 476.48 182.16 447.19 181.92 417.90 182.00 C 417.88 140.99 417.90 99.98 417.89 58.96 C 417.93 54.73 417.74 50.49 418.07 46.26 Z"/>
<path fill="#ffffff" opacity="1.00" d=" M 527.54 46.53 C 536.53 46.18 545.55 46.23 554.54 46.51 C 554.33 84.18 554.50 121.87 554.45 159.55 C 574.77 159.56 595.09 159.54 615.42 159.56 C 615.44 167.04 615.44 174.52 615.42 182.00 C 586.16 182.00 556.91 182.00 527.66 182.00 C 527.55 136.85 527.79 91.68 527.54 46.53 Z"/>
<path fill="#ffffff" opacity="1.00" d=" M 745.57 46.48 C 757.27 46.12 768.98 46.46 780.68 46.31 C 792.21 79.49 803.47 112.78 815.08 145.94 C 815.55 145.94 816.50 145.94 816.98 145.94 C 828.54 112.78 839.70 79.47 851.22 46.29 C 862.64 46.50 874.08 46.05 885.49 46.52 C 885.26 91.68 885.50 136.85 885.37 182.01 C 876.91 181.99 868.45 182.00 860.00 182.00 C 859.89 152.03 860.13 122.06 859.88 92.09 C 859.27 92.13 858.05 92.21 857.44 92.25 C 849.89 114.61 841.94 136.83 834.23 159.14 C 831.44 166.70 829.18 174.53 826.08 181.92 C 818.69 182.11 811.29 181.97 803.90 181.97 C 793.55 152.00 782.95 122.11 772.68 92.12 C 772.07 92.15 770.86 92.22 770.25 92.25 C 770.21 122.17 770.25 152.08 770.23 182.00 C 762.04 182.01 753.85 181.99 745.66 182.00 C 745.58 136.83 745.75 91.65 745.57 46.48 Z"/>
<path fill="#ffffff" opacity="1.00" d=" M 952.03 46.28 C 963.50 46.44 974.96 46.19 986.43 46.41 C 1001.85 91.41 1017.43 136.35 1033.00 181.30 L 1033.00 181.99 C 1023.66 182.00 1014.32 182.03 1004.98 181.98 C 1001.65 171.56 998.15 161.19 994.87 150.76 C 977.53 150.62 960.19 150.75 942.86 150.69 C 939.42 161.06 935.95 171.43 932.74 181.88 C 923.51 182.12 914.27 181.99 905.04 181.95 C 920.80 136.76 936.17 91.43 952.03 46.28 M 966.75 76.79 C 961.23 93.89 955.66 110.97 950.07 128.04 C 962.48 128.37 974.90 128.13 987.32 128.16 C 981.57 110.37 975.77 92.59 969.87 74.86 C 968.22 73.57 966.96 75.28 966.75 76.79 Z"/>
<path fill="#ffffff" opacity="1.00" d=" M 630.13 95.96 C 640.95 84.12 656.99 77.66 672.94 77.71 C 682.64 77.74 693.11 78.78 701.14 84.75 C 708.61 90.36 711.91 99.91 712.09 108.99 C 712.25 124.33 712.10 139.68 712.16 155.03 C 712.14 157.31 712.57 159.99 714.68 161.29 C 717.58 162.99 720.94 161.51 724.05 161.45 C 724.64 167.46 725.16 173.48 725.96 179.46 C 718.93 183.42 710.17 183.38 702.49 181.56 C 695.99 180.04 691.78 174.27 689.79 168.23 C 689.36 168.17 688.49 168.05 688.05 167.99 C 684.56 174.82 678.62 180.55 671.04 182.46 C 661.51 184.91 650.87 184.46 642.05 179.86 C 634.34 175.85 629.39 167.73 628.31 159.22 C 626.84 149.96 628.40 139.22 635.82 132.75 C 644.39 125.21 656.07 122.96 667.00 121.08 C 672.53 120.04 678.28 119.09 683.20 116.18 C 689.20 112.76 688.31 102.38 681.89 99.90 C 676.86 97.90 671.23 98.17 665.98 98.96 C 656.64 100.51 648.59 106.09 642.02 112.67 C 640.89 111.91 639.90 110.98 639.24 109.79 C 636.26 105.14 633.14 100.59 630.13 95.96 M 683.02 133.04 C 675.77 136.86 667.03 135.98 659.76 139.73 C 650.80 144.12 651.12 159.58 660.47 163.33 C 668.51 166.54 679.00 164.38 683.83 156.79 C 688.87 149.28 687.53 139.82 687.58 131.28 C 685.91 131.45 684.44 132.22 683.02 133.04 Z"/>
</svg>